HIERARCHY
ROOT Hips
{
	OFFSET 0.000000 0.000000 0.000000 
	CHANNELS 6 Xposition Yposition Zposition Yrotation Zrotation Xrotation 
	JOINT Lumbar
	{
		OFFSET 0.000000 0.000000 0.000000 
		CHANNELS 3 Zrotation Xrotation Yrotation
		JOINT Neck
		{
			OFFSET 0.000000 0.445665 0.000000 
			CHANNELS 3 Zrotation Xrotation Yrotation
			End Site
			{
				OFFSET 0.000000 0.227535 0.000000 
			}
		}
		JOINT RightShoulder
		{
			OFFSET 0.019635 0.377685 0.194865 
			CHANNELS 3 Zrotation Xrotation Yrotation
			JOINT RightElbow
			{
				OFFSET 0.000000 -0.243375 0.000000 
				CHANNELS 2 Zrotation Yrotation
				JOINT RightWrist
				{
					OFFSET 0.000000 -0.264825 0.000000 
					CHANNELS 2 Zrotation Xrotation
					End Site
					{
						OFFSET 0.006600 -0.176220 0.000990 
					}
				}
			}
		}
		JOINT LeftShoulder
		{
			OFFSET 0.019635 0.377685 -0.194865 
			CHANNELS 3 Zrotation Xrotation Yrotation
			JOINT LeftElbow
			{
				OFFSET 0.000000 -0.243375 0.000000 
				CHANNELS 2 Zrotation Yrotation
				JOINT LeftWrist
				{
					OFFSET 0.000000 -0.264825 0.000000 
					CHANNELS 2 Zrotation Xrotation
					End Site
					{
						OFFSET 0.006600 -0.176220 -0.000990 
					}
				}
			}
		}
	}
	JOINT RightHip
	{
		OFFSET 0.052140 -0.069960 0.075570 
		CHANNELS 3 Zrotation Xrotation Yrotation
		JOINT RightKnee
		{
			OFFSET 0.000000 -0.402270 0.000000 
			CHANNELS 1 Zrotation
			JOINT RightAnkle
			{
				OFFSET 0.000000 -0.404085 0.000000 
				CHANNELS 3 Zrotation Xrotation Yrotation
				End Site
				{
					OFFSET 0.204105 -0.089430 0.008415 
				}
			}
		}
	}
	JOINT LeftHip
	{
		OFFSET 0.052140 -0.069960 -0.075570 
		CHANNELS 3 Zrotation Xrotation Yrotation
		JOINT LeftKnee
		{
			OFFSET 0.000000 -0.402270 0.000000 
			CHANNELS 1 Zrotation
			JOINT LeftAnkle
			{
				OFFSET 0.000000 -0.404085 0.000000 
				CHANNELS 3 Zrotation Xrotation Yrotation
				End Site
				{
					OFFSET 0.204105 -0.089430 -0.008415 
				}
			}
		}
	}
}
MOTION
Frames: 22
Frame Time: 0.02
-0.00025 -4e-05 -0.00062 174.47305 -46.97053 -0.4141 56.98602 1.79408 2.20978 -3.88428 -7.99753 -0.14002 157.65744 -80.08362 -59.64651 10.43998 99.19441 -11.83805 -10.32588 -18.58302 108.1903 -64.16366 5.51963 -64.2685 14.20476 6.68284 50.71094 -1.08224 -7.64522 -18.69553 -7.84942 -4.8688 -3.29781 51.79881 2.14236 3.50915 -24.18999 -9.0437 5.67705 3.80392
-0.00045 -7e-05 -0.00072 174.44573 -46.95359 -0.43101 57.01478 1.76857 2.24062 -3.92422 -7.97621 -0.13987 157.41592 -80.04509 -60.02097 10.36227 99.21381 -11.79814 -10.25775 -18.77058 108.1675 -64.16397 5.51327 -64.19407 14.07434 6.70162 50.68612 -1.04314 -7.50578 -18.69748 -7.85202 -4.87798 -3.30325 51.76356 2.20139 3.7152 -24.18933 -9.01644 5.66366 3.79536
-0.00066 -0.0001 -0.00082 174.41853 -46.93667 -0.44785 57.04354 1.74306 2.27138 -3.96429 -7.95456 -0.13973 157.17454 -80.00681 -60.39485 10.28473 99.23305 -11.75794 -10.1896 -18.95603 108.14427 -64.16277 5.50692 -64.12073 13.94381 6.72035 50.66132 -1.00418 -7.36691 -18.69943 -7.8546 -4.88713 -3.30866 51.72836 2.26032 3.92105 -24.18867 -8.98923 5.65029 3.78681
-0.00087 -0.00013 -0.00092 174.39131 -46.91978 -0.4647 57.07223 1.71762 2.30213 -4.00414 -7.93326 -0.13959 156.93373 -79.9684 -60.76813 10.20725 99.25253 -11.71816 -10.12169 -19.14442 108.12175 -64.1643 5.50057 -64.04655 13.81381 6.7391 50.63657 -0.9652 -7.22792 -18.70137 -7.8572 -4.89629 -3.31407 51.69322 2.31919 4.12655 -24.18801 -8.96205 5.63694 3.77827
-0.00107 -0.00016 -0.00102 174.36396 -46.90288 -0.48164 57.1009 1.69223 2.33295 -4.0438 -7.91241 -0.13944 156.69285 -79.92975 -61.14208 10.12962 99.27181 -11.67865 -10.05376 -19.33093 108.09904 -64.16386 5.49422 -63.9713 13.68385 6.7578 50.61182 -0.92607 -7.08832 -18.70331 -7.85982 -4.90547 -3.31951 51.65805 2.3781 4.33204 -24.18735 -8.93486 5.62358 3.76974
-0.00128 -0.00019 -0.00113 174.33708 -46.8859 -0.49827 57.12983 1.66645 2.36356 -4.08472 -7.88904 -0.13931 156.45032 -79.8923 -61.51597 10.05228 99.29073 -11.63688 -9.98507 -19.51157 108.07427 -64.1588 5.48789 -63.90216 13.55196 6.77658 50.58692 -0.8875 -6.95098 -18.70528 -7.86232 -4.91455 -3.32487 51.62278 2.43706 4.5386 -24.1867 -8.90758 5.61017 3.76114
-0.00148 -0.00022 -0.00123 174.30927 -46.86913 -0.51551 57.15821 1.6415 2.39458 -4.123 -7.8709 -0.13914 156.21186 -79.8523 -61.88872 9.97446 99.31144 -11.6002 -9.91833 -19.71582 108.05581 -64.17365 5.48148 -63.81995 13.42482 6.79537 50.56236 -0.84783 -6.80925 -18.70719 -7.86505 -4.92383 -3.33038 51.58777 2.4959 4.74291 -24.18602 -8.88051 5.59688 3.75267
-0.00169 -0.00025 -0.00133 174.28234 -46.85212 -0.53216 57.18708 1.61574 2.42519 -4.16383 -7.84766 -0.13901 155.96875 -79.81499 -62.26406 9.89704 99.32849 -11.55793 -9.84918 -19.87641 108.02762 -64.15081 5.47522 -63.75135 13.29198 6.81377 50.53746 -0.80919 -6.67157 -18.70916 -7.86757 -4.93293 -3.33575 51.5525 2.55478 4.94907 -24.18537 -8.85327 5.58349 3.7441
-0.0019 -0.00028 -0.00143 174.25641 -46.83497 -0.5482 57.21664 1.58917 2.45546 -4.20739 -7.81921 -0.13895 155.7233 -79.77963 -62.63673 9.82021 99.34905 -11.51227 -9.77944 -20.07034 108.00295 -64.15836 5.46885 -63.69334 13.15729 6.83324 50.51221 -0.77173 -6.53879 -18.71116 -7.86983 -4.94179 -3.34094 51.51695 2.614 5.15852 -24.18475 -8.82571 5.56991 3.73535
-0.0021 -0.00031 -0.00154 174.22451 -46.81909 -0.56806 57.24254 1.5678 2.48815 -4.23409 -7.82382 -0.13853 155.50135 -79.72902 -63.00725 9.7403 99.37341 -11.49648 -9.72016 -20.33308 108.00437 -64.22087 5.46225 -63.55621 13.04861 6.85121 50.48918 -0.72722 -6.37767 -18.71289 -7.87359 -4.95199 -3.34716 51.48313 2.67216 5.35217 -24.18395 -8.79964 5.55724 3.72748
-0.00231 -0.00034 -0.00164 174.2053 -46.80027 -0.57969 57.27592 1.53509 2.51545 -4.29706 -7.75676 -0.13886 155.2235 -79.71314 -63.3934 9.66669 99.37442 -11.41109 -9.63436 -20.28427 107.92119 -64.02076 5.45666 -63.59755 12.87527 6.86937 50.46134 -0.69778 -6.27641 -18.71522 -7.87419 -4.95937 -3.35119 51.44559 2.73199 5.57711 -24.18355 -8.77064 5.54274 3.71784
-0.00259 -0.0004 -0.00172 174.22046 -46.7755 -0.56979 57.3322 1.47404 2.53019 -4.45482 -7.50686 -0.14126 154.85245 -79.7739 -63.73157 9.61132 99.43897 -11.18941 -9.50884 -20.80218 107.85815 -64.34055 5.44931 -64.03418 12.60769 6.91187 50.42135 -0.70858 -6.34081 -18.71906 -7.86587 -4.95906 -3.34913 51.39837 2.80127 5.90626 -24.18417 -8.73157 5.52247 3.70245
-0.00287 -0.00047 -0.00181 174.24839 -46.7475 -0.55137 57.3956 1.40114 2.53911 -4.64982 -7.18256 -0.1444 154.42109 -79.87384 -64.10189 9.56152 99.45816 -10.88963 -9.34889 -20.78949 107.67198 -64.19796 5.44359 -64.66411 12.26317 6.94972 50.37649 -0.73479 -6.46521 -18.72355 -7.85438 -4.95591 -3.34485 51.34745 2.87137 6.26387 -24.18523 -8.68987 5.50049 3.68542
-0.00314 -0.00054 -0.00189 174.27085 -46.71946 -0.53622 57.45413 1.33182 2.54925 -4.83096 -6.88315 -0.1472 153.96906 -79.96693 -64.51739 9.50927 99.41249 -10.58739 -9.18524 -20.0326 107.36642 -63.41676 5.44039 -65.27167 11.89514 6.97469 50.33296 -0.75458 -6.56109 -18.72781 -7.84456 -4.95408 -3.34164 51.2977 2.93791 6.5959 -24.18614 -8.65075 5.47981 3.66974
-0.00345 -0.00061 -0.00198 174.29216 -46.69736 -0.5238 57.51938 1.26992 2.56539 -4.9995 -6.62075 -0.15005 153.69107 -80.01033 -64.68224 9.45903 99.7203 -10.43722 -9.11009 -23.2456 107.76549 -66.08867 5.42439 -65.61738 11.75968 7.0647 50.2925 -0.77161 -6.66181 -18.7317 -7.83393 -4.95223 -3.33821 51.24952 3.01778 6.97956 -24.18678 -8.60597 5.45695 3.65162
-0.00366 -0.00066 -0.00205 174.31861 -46.66267 -0.50339 57.57255 1.18998 2.56765 -5.20276 -6.26424 -0.15297 153.07241 -80.17094 -65.37462 9.40295 99.29026 -9.96186 -8.8338 -18.30091 106.71209 -61.62053 5.43426 -66.53652 11.13929 7.01592 50.24532 -0.79846 -6.76739 -18.73665 -7.82404 -4.9496 -3.33465 51.19791 3.07026 7.26474 -24.18819 -8.5721 5.43816 3.63808
-0.00361 -0.00066 -0.00209 174.35833 -46.58908 -0.46548 57.58836 1.06149 2.53307 -5.49544 -5.66137 -0.15589 151.20965 -80.60756 -67.53145 9.35568 96.74326 -8.52323 -8.08845 11.11748 101.29789 -36.15138 5.52557 -69.13392 9.03965 6.60312 50.17339 -0.84505 -6.86455 -18.74324 -7.81869 -4.94675 -3.33203 51.13158 3.04525 7.2504 -24.19078 -8.57129 5.43187 3.63863
-0.00345 -0.00065 -0.00212 174.40233 -46.50375 -0.41941 57.59202 0.91568 2.48471 -5.82115 -4.96754 -0.15892 149.05933 -81.16771 -70.21279 9.29808 93.46412 -6.77697 -7.13016 48.37072 94.49745 -3.76866 5.64108 -72.26831 6.47936 6.04696 50.09614 -0.90157 -6.96538 -18.75109 -7.81392 -4.94301 -3.32925 51.06299 2.99289 7.13944 -24.19429 -8.58116 5.42961 3.64369
-0.00333 -0.00065 -0.00214 174.44298 -46.4272 -0.37543 57.60295 0.77871 2.4426 -6.13012 -4.31814 -0.16183 147.25722 -81.69649 -72.64674 9.22708 90.58992 -5.22549 -6.21466 80.63442 88.58074 24.52542 5.7385 -75.07224 4.24058 5.54511 50.02631 -0.95603 -7.06978 -18.75912 -7.80771 -4.9388 -3.32605 50.99963 2.95422 7.08671 -24.19794 -8.58459 5.42493 3.64602
-0.00326 -0.00062 -0.0022 174.49017 -46.33649 -0.33783 57.60746 0.63675 2.40031 -6.44815 -3.65196 -0.16481 144.56019 -82.12278 -75.12957 9.2299 87.44252 -3.4345 -5.51421 118.82004 81.58755 56.81163 5.86528 -78.27579 1.54603 5.09073 49.93562 -1.0011 -7.15603 -18.764 -7.80616 -4.93803 -3.32477 50.91881 2.91053 6.97607 -24.19925 -8.59445 5.42259 3.65108
-0.00305 -0.00066 -0.00217 174.5244 -46.2719 -0.28528 57.62144 0.50185 2.35522 -6.75409 -3.00148 -0.16799 143.6276 -82.79046 -77.62259 9.07994 84.64914 -2.07625 -4.33033 146.68714 76.51006 82.44486 5.93746 -80.73688 -0.33325 4.50117 49.88666 -1.06738 -7.27783 -18.77574 -7.79531 -4.93013 -3.31959 50.87332 2.87047 6.96077 -24.20565 -8.59369 5.41646 3.65163
-0.00249 -0.00087 -0.00193 174.52351 -46.28793 -0.19199 57.67252 0.38533 2.30538 -7.023 -2.40525 -0.16899 147.91562 -84.10323 -80.11584 8.48027 83.3794 -1.93648 -1.73685 142.71539 77.05497 87.78072 5.84589 -81.32567 0.37729 3.59492 49.95887 -1.19397 -7.51689 -18.8061 -7.75687 -4.90098 -3.30271 50.93094 2.84999 7.24958 -24.22586 -8.55945 5.3979 3.63774
